# xmcd CD database file
#
# Track frame offsets:
#	150
#	13746
#	26651
#	39974
#	51534
#	71493
#	88178
#	102980
#	115822
#	130485
#	143157
#	161577
#	175376
#	191853
#	206622
#
# Disc length: 2990 seconds
#
# Revision: 0
# Processed by: cddbd v1.4PL0 Copyright (c) Steve Scherf et al.
# Submitted via: CDex 1.50
#
DISCID=dd0bac0f
DTITLE=Bill and Colleen Cade - Bill and Colleen Cade
DYEAR=2002
DGENRE=Country
TTITLE0=26 Miles to Mexico
TTITLE1=I Know a Heartache
TTITLE2=Saturday Morning
TTITLE3=Ripped Off
TTITLE4=American Dream
TTITLE5=If It Wasn't for the Wind
TTITLE6=Keep on Truckin' Mama
TTITLE7=Polin' on the Bayou
TTITLE8=Love Me Like a Man
TTITLE9=Heart of New Orleans
TTITLE10=Angel From Montgomery
TTITLE11=The Ace
TTITLE12=So Have I
TTITLE13=Balloon Man
TTITLE14=Hard Times Come Again No More
EXTD=YEAR: 2002
EXTT0=
EXTT1=
EXTT2=
EXTT3=
EXTT4=
EXTT5=
EXTT6=
EXTT7=
EXTT8=
EXTT9=
EXTT10=
EXTT11=
EXTT12=
EXTT13=
EXTT14=
PLAYORDER=
